<svg xmlns="http://www.w3.org/2000/svg" xmlns:xlink="http://www.w3.org/1999/xlink" width="500" zoomAndPan="magnify" viewBox="0 0 375 374.999991" height="500" preserveAspectRatio="xMidYMid meet" version="1.0"><defs><clipPath id="6c3429647f"><path d="M 72 192 L 303 192 L 303 325.078125 L 72 325.078125 Z M 72 192 " clip-rule="nonzero"/></clipPath><clipPath id="b731525ee8"><path d="M 66.347656 49.828125 L 182 49.828125 L 182 249 L 66.347656 249 Z M 66.347656 49.828125 " clip-rule="nonzero"/></clipPath><clipPath id="c4fba6717a"><path d="M 193 50 L 308.597656 50 L 308.597656 250 L 193 250 Z M 193 50 " clip-rule="nonzero"/></clipPath><clipPath id="476a8a2ed9"><path d="M 117.320312 141.699219 L 133.554688 141.699219 L 133.554688 149.722656 L 117.320312 149.722656 Z M 117.320312 141.699219 " clip-rule="nonzero"/></clipPath></defs><path fill="#430573" d="M 137.714844 157.273438 L 109.992188 173.273438 L 109.90625 141.21875 L 137.714844 125.261719 Z M 137.714844 157.273438 " fill-opacity="1" fill-rule="nonzero"/><g clip-path="url(#6c3429647f)"><path fill="#430573" d="M 187.515625 192.027344 L 119.851562 231.160156 L 119.707031 231.242188 L 212.828125 285.03125 L 187.488281 299.660156 L 116.367188 258.617188 L 127.976562 251.914062 L 105.933594 239.195312 L 72.273438 258.632812 L 187.519531 325.160156 L 256.894531 285.039062 L 163.796875 231.230469 L 187.515625 217.539062 L 258.613281 258.59375 L 247.253906 265.152344 L 245.5625 266.195312 L 266.132812 278.054688 L 267.535156 278.960938 L 302.71875 258.582031 Z M 187.515625 192.027344 " fill-opacity="1" fill-rule="nonzero"/></g><g clip-path="url(#b731525ee8)"><path fill="#8f00ff" d="M 66.363281 116.097656 L 181.199219 49.828125 L 181.21875 100.300781 L 159.246094 112.902344 L 159.246094 87.894531 L 88.390625 128.800781 L 88.390625 210.671875 L 159.246094 169.726562 L 159.246094 145.054688 L 181.238281 132.453125 L 181.257812 182.40625 L 66.421875 248.71875 Z M 66.363281 116.097656 " fill-opacity="1" fill-rule="nonzero"/></g><g clip-path="url(#c4fba6717a)"><path fill="#8f00ff" d="M 308.632812 116.644531 L 308.605469 249.691406 L 286.53125 236.996094 L 286.539062 129.398438 L 262.816406 115.707031 L 261.738281 115.082031 L 261.71875 222.261719 L 239.640625 209.566406 L 239.648438 102.332031 L 215.386719 88.328125 L 215.417969 195.9375 L 193.34375 183.210938 L 193.34375 50.148438 Z M 308.632812 116.644531 " fill-opacity="1" fill-rule="nonzero"/></g><g clip-path="url(#476a8a2ed9)"><path fill="#430573" d="M 117.320312 141.699219 L 133.558594 141.699219 L 133.558594 149.722656 L 117.320312 149.722656 Z M 117.320312 141.699219 " fill-opacity="1" fill-rule="nonzero"/></g></svg>